<?xml version="1.0" standalone="no"?>
<!DOCTYPE svg PUBLIC "-//W3C//DTD SVG 20010904//EN"
 "http://www.w3.org/TR/2001/REC-SVG-20010904/DTD/svg10.dtd">
<svg version="1.0" xmlns="http://www.w3.org/2000/svg"
 width="3000.000000pt" height="3000.000000pt" viewBox="0 0 3000.000000 3000.000000"
 preserveAspectRatio="xMidYMid meet">
<metadata>
Created by potrace 1.14, written by Peter Selinger 2001-2017
</metadata>
<g transform="translate(0.000000,3000.000000) scale(0.100000,-0.100000)"
fill="#000000" stroke="none">
<path d="M0 15000 l0 -15000 15000 0 15000 0 0 15000 0 15000 -15000 0 -15000
0 0 -15000z m18921 8915 c523 -525 1322 -1325 1773 -1779 452 -454 1498 -1505
2326 -2336 827 -831 1508 -1516 1512 -1523 4 -7 8 -28 8 -48 0 -38 -132 -170
-3770 -3789 -401 -399 -1419 -1412 -2262 -2251 -843 -840 -1894 -1886 -2335
-2325 -1429 -1422 -1753 -1747 -1750 -1750 2 -2 1049 -6 2328 -9 1278 -3 2725
-8 3214 -10 490 -2 1543 -4 2340 -4 l1450 -1 35 -29 c19 -16 87 -70 150 -120
63 -51 132 -106 152 -124 l38 -32 0 -983 0 -983 -28 -31 -29 -30 -1329 1
c-731 1 -1804 4 -2384 6 -580 2 -2360 7 -3955 10 -1595 3 -3514 7 -4265 10
-751 3 -2560 7 -4020 11 l-2655 6 -28 27 -29 28 2 1239 c0 681 3 1523 5 1869
2 347 4 1262 6 2035 2 1338 3 1407 21 1456 20 57 -51 -16 1366 1392 664 661
2545 2531 3966 3945 347 345 1184 1177 1860 1850 676 672 1520 1511 1875 1865
355 353 1186 1179 1845 1835 660 655 1274 1267 1365 1359 161 162 167 167 207
168 l42 0 953 -955z"/>
<path d="M17483 21397 c-161 -161 -481 -481 -713 -711 -231 -231 -420 -423
-420 -427 0 -3 516 -525 1148 -1159 631 -633 1436 -1443 1789 -1798 l642 -647
238 237 c131 130 455 452 721 716 l482 478 0 42 0 42 -857 860 c-472 473
-1261 1265 -1753 1760 l-895 900 -45 0 -45 -1 -292 -292z"/>
<path d="M14018 17948 c-411 -409 -1274 -1267 -1918 -1908 -644 -641 -1501
-1493 -1905 -1895 -2376 -2363 -2390 -2377 -2412 -2424 l-21 -46 -2 -1245 c-1
-685 -3 -1470 -6 -1745 l-4 -501 30 -29 31 -30 1747 -3 c1740 -3 1747 -3 1792
17 48 22 7 -19 3090 3051 876 872 1893 1884 2261 2250 1728 1719 1648 1637
1651 1683 l3 42 -263 265 c-145 146 -934 939 -1754 1763 l-1491 1497 -41 0
c-41 0 -41 0 -788 -742z"/>
<path d="M14230 7915 c0 -8 2 -15 4 -15 2 0 6 7 10 15 3 8 1 15 -4 15 -6 0
-10 -7 -10 -15z"/>
</g>
</svg>
